<?xml version="1.0" encoding="utf-8"?>
<!DOCTYPE svg PUBLIC "-//W3C//DTD SVG 1.1//EN" "http://www.w3.org/Graphics/SVG/1.1/DTD/svg11.dtd">
<svg version="1.1" id="Layer_1" xmlns="http://www.w3.org/2000/svg" xmlns:xlink="http://www.w3.org/1999/xlink" x="0px" y="0px"
	 width="497.856px" height="548.963px" viewBox="0 0 497.856 548.963" enable-background="new 0 0 497.856 548.963"
	 xml:space="preserve">
<g>
	<defs>
		<rect id="SVGID_1_" x="-334.414" y="-131.353" width="1190.55" height="841.89"/>
	</defs>
	<clipPath id="SVGID_2_">
		<use xlink:href="#SVGID_1_"  overflow="visible"/>
	</clipPath>
	<path clip-path="url(#SVGID_2_)" d="M0,497.857h497.856V0H0V497.857z M327.75,248.928v-31.205h69.444
		c-1.521,0.777-2.995,1.622-4.411,2.549c-5.266,3.446-9.522,8.062-12.774,13.846c-3.247,5.785-4.875,13.034-4.875,21.742
		c0,8.452,2.075,15.892,6.226,22.327c4.148,6.436,10.112,11.408,17.89,14.918l-32.219,51.465h-39.28V248.928z M412.962,99.239
		c-1.418,1.932-3.169,3.445-5.252,4.535c-2.082,1.095-4.331,1.807-6.748,2.142c-2.418,0.338-4.627,0.504-6.627,0.504h-11.752V77.694
		h14.253c1.834,0,3.835,0.126,6,0.378s4.166,0.843,6,1.764c1.835,0.926,3.335,2.311,4.5,4.158c1.166,1.85,1.752,4.37,1.752,7.559
		C415.088,94.746,414.38,97.309,412.962,99.239 M418.616,208.723h-35.528v-62.995h1.761L418.616,208.723z M111.257,429.471
		c-7.661,6.192-18.641,9.288-32.941,9.288H67.08v-76.862h13.534c12.768,0,22.982,3.268,30.643,9.8
		c7.66,6.536,11.491,15.653,11.491,27.358C122.748,413.139,118.917,423.279,111.257,429.471 M182.25,484.357h-57.858
		c10.611-3.549,20.107-8.575,28.487-15.084c9.532-7.404,17.149-16.893,22.855-28.473c2.927-5.94,5.091-12.454,6.516-19.519V484.357z
		 M182.25,376.987c-1.487-7.631-3.772-14.463-6.899-20.452c-5.961-11.404-13.917-20.556-23.876-27.452
		c-9.959-6.895-21.45-11.746-34.473-14.554c-13.023-2.811-26.685-4.215-40.984-4.215H13.5V284.57h168.75V376.987z M71.115,209.842
		h50.648v65.728H71.115V209.842z M182.25,95.231h-60.748v62.658H70.854V95.231H13.5V13.5h168.75V95.231z M318.75,386.209H271.8
		v-12.87h46.95V386.209z M318.75,337.266H271.8V325.37h46.95V337.266z M318.75,286.76h-90.63v138.06h90.63v59.537h-127.5V280.07
		v-26.642h127.5V286.76z M273.314,231.489l4.604,12.939h-46.687l4.354-12.939H273.314z M245.143,200.97l9.726-29.345l9.558,29.345
		H245.143z M318.75,238.158l-42.082-107.95h-42.424L191.25,239.312V13.5h127.5V238.158z M327.75,484.357v-59.206
		c0.615,3.19,1.377,6.395,2.322,9.618c1.566,5.322,3.629,10.528,6.188,15.616c2.561,5.078,5.583,9.945,9.071,14.589
		c4.378,5.826,9.512,10.919,15.401,15.276c2.056,1.521,4.166,2.882,6.328,4.106H327.75z M395.89,362.154
		c-5.086,3.82-8.829,7.897-11.236,12.239c-2.404,4.34-3.87,8.858-4.398,13.561s-0.347,9.507,0.545,14.408
		c0.889,4.903,2.147,9.785,3.771,14.646c1.698,4.968,3.057,9.141,4.072,12.518c1.012,3.375,1.68,6.124,2.005,8.244
		c0.326,2.117,0.332,3.759,0.022,4.922c-0.313,1.163-1.007,2.149-2.088,2.962c-2.055,1.544-4.131,1.709-6.226,0.496
		c-2.096-1.21-3.953-2.899-5.575-5.057c-3.569-4.751-5.901-10.216-6.998-16.397c-1.099-6.184-1.205-11.718-0.316-16.605
		l-41.717-4.173V353.57h85.721C407.601,354.915,401.739,357.759,395.89,362.154 M484.356,484.357h-66.757
		c1.409-0.882,2.814-1.826,4.211-2.876c5.937-4.459,9.97-9.434,12.101-14.915c2.125-5.484,3.129-11.175,3.004-17.074
		c-0.127-5.902-1.03-11.765-2.707-17.597c-1.681-5.829-3.412-11.284-5.196-16.358c-1.706-4.967-2.798-8.664-3.271-11.095
		c-0.473-2.429,0.151-4.293,1.881-5.591c1.834-1.379,3.805-1.51,5.912-0.389c2.107,1.116,4.216,3.079,6.324,5.89
		c2.27,3.02,3.984,7.048,5.152,12.085c1.163,5.033,1.101,10.062-0.191,15.087l39.538,5.212V484.357z M443.973,299.735h1.362v44.835
		h-25.397L443.973,299.735z M420.569,257.81c0-2.468,0.454-4.418,1.355-5.851c0.902-1.428,2.063-2.501,3.483-3.216
		c1.422-0.714,2.969-1.171,4.644-1.366c1.676-0.194,3.223-0.293,4.644-0.293h11.03v22.231h-9.095c-1.548,0-3.256-0.128-5.128-0.39
		c-1.871-0.259-3.61-0.81-5.224-1.658c-1.611-0.844-2.967-2.013-4.064-3.51C421.12,262.265,420.569,260.281,420.569,257.81
		 M484.356,406.884c-2.964-9.972-7.271-18.724-12.926-26.25c-4.219-5.615-9.177-10.755-14.881-15.416
		c-5.706-4.667-11.876-8.096-18.51-10.286c-1.662-0.549-3.341-1.002-5.035-1.361h51.352V406.884z M484.356,203.802l-41.716-66.641
		c10.048-4.535,17.753-10.961,23.115-19.276c5.362-8.316,8.044-17.93,8.044-28.851c0-11.253-2.103-20.619-6.299-28.096
		c-4.201-7.473-9.702-13.438-16.504-17.891c-6.806-4.449-14.533-7.559-23.184-9.323c-8.654-1.764-17.347-2.645-26.08-2.645H327.75
		V13.5h156.605V203.802z"/>
	<path clip-path="url(#SVGID_2_)" d="M72.279,525.32v2.092c-2.133-1.254-3.967-1.881-5.502-1.881c-1.477,0-2.71,0.448-3.7,1.345
		c-0.99,0.896-1.486,2.007-1.486,3.331c0,0.949,0.293,1.804,0.879,2.566c0.586,0.762,1.811,1.493,3.674,2.196
		c1.864,0.704,3.223,1.289,4.078,1.758c0.856,0.47,1.582,1.149,2.18,2.039c0.598,0.892,0.897,2.046,0.897,3.464
		c0,1.887-0.692,3.48-2.075,4.78c-1.383,1.302-3.07,1.952-5.062,1.952c-2.039,0-4.137-0.715-6.293-2.145v-2.232
		c2.379,1.746,4.441,2.619,6.187,2.619c1.453,0,2.681-0.472,3.683-1.415c1.002-0.944,1.503-2.101,1.503-3.472
		c0-1.043-0.311-1.983-0.932-2.823c-0.621-0.838-1.88-1.62-3.778-2.349c-1.897-0.729-3.254-1.316-4.068-1.761
		c-0.815-0.444-1.508-1.081-2.076-1.906c-0.569-0.825-0.853-1.889-0.853-3.189c0-1.803,0.691-3.34,2.074-4.611
		c1.383-1.27,3.047-1.905,4.992-1.905C68.511,523.773,70.404,524.289,72.279,525.32"/>
	<path clip-path="url(#SVGID_2_)" d="M92.708,524.09h6.767c2.59,0,4.573,0.58,5.95,1.739c1.377,1.16,2.066,2.742,2.066,4.746
		c0,2.028-0.695,3.634-2.083,4.817c-1.389,1.183-3.425,1.775-6.109,1.775h-4.693v11.479h-1.898V524.09z M94.606,525.672v9.914h4.57
		c2.051,0,3.61-0.435,4.676-1.302c1.067-0.866,1.6-2.092,1.6-3.674c0-1.511-0.522-2.712-1.565-3.603
		c-1.043-0.892-2.537-1.336-4.482-1.336H94.606z"/>
	<rect x="126.179" y="524.089" clip-path="url(#SVGID_2_)" width="1.898" height="24.558"/>
	<polygon clip-path="url(#SVGID_2_)" points="150.721,524.09 150.721,547.064 162.867,547.064 162.867,548.646 148.823,548.646
		148.823,524.09 	"/>
	<polygon clip-path="url(#SVGID_2_)" points="182.733,524.09 182.733,547.064 194.879,547.064 194.879,548.646 180.835,548.646
		180.835,524.09 	"/>
	<polygon clip-path="url(#SVGID_2_)" points="226.277,524.09 226.277,525.672 214.781,525.672 214.781,535.497 225.978,535.497
		225.978,537.098 214.781,537.098 214.781,547.064 226.558,547.064 226.558,548.646 212.882,548.646 212.882,524.09 	"/>
	<path clip-path="url(#SVGID_2_)" d="M257.165,525.32v2.092c-2.133-1.254-3.967-1.881-5.502-1.881c-1.477,0-2.71,0.448-3.7,1.345
		c-0.99,0.896-1.486,2.007-1.486,3.331c0,0.949,0.293,1.804,0.879,2.566c0.586,0.762,1.811,1.493,3.674,2.196
		c1.864,0.704,3.223,1.289,4.078,1.758c0.856,0.47,1.582,1.149,2.18,2.039c0.598,0.892,0.897,2.046,0.897,3.464
		c0,1.887-0.692,3.48-2.075,4.78c-1.383,1.302-3.07,1.952-5.062,1.952c-2.039,0-4.137-0.715-6.293-2.145v-2.232
		c2.379,1.746,4.441,2.619,6.187,2.619c1.453,0,2.681-0.472,3.683-1.415c1.002-0.944,1.503-2.101,1.503-3.472
		c0-1.043-0.311-1.983-0.932-2.823c-0.621-0.838-1.88-1.62-3.778-2.349c-1.897-0.729-3.254-1.316-4.068-1.761
		c-0.815-0.444-1.508-1.081-2.076-1.906c-0.569-0.825-0.853-1.889-0.853-3.189c0-1.803,0.691-3.34,2.074-4.611
		c1.383-1.27,3.047-1.905,4.992-1.905C253.397,523.773,255.29,524.289,257.165,525.32"/>
	<polygon clip-path="url(#SVGID_2_)" points="295.259,524.09 295.259,525.672 286.049,525.672 286.049,548.646 284.133,548.646
		284.133,525.672 274.921,525.672 274.921,524.09 	"/>
	<polygon clip-path="url(#SVGID_2_)" points="326.815,524.09 326.815,525.672 315.319,525.672 315.319,535.497 326.515,535.497
		326.515,537.098 315.319,537.098 315.319,547.064 327.095,547.064 327.095,548.646 313.419,548.646 313.419,524.09 	"/>
	<path clip-path="url(#SVGID_2_)" d="M346.154,524.09h8.595c4.349,0,7.667,1.143,9.958,3.428s3.438,5.238,3.438,8.859
		c0,3.551-1.134,6.482-3.402,8.798c-2.267,2.313-5.487,3.472-9.659,3.472h-8.929V524.09z M348.052,525.672v21.393h6.926
		c3.176,0,5.82-0.976,7.936-2.927c2.116-1.951,3.173-4.538,3.173-7.761c0-3.152-1.043-5.726-3.129-7.718
		c-2.086-1.991-4.787-2.987-8.103-2.987H348.052z"/>
	<polygon clip-path="url(#SVGID_2_)" points="401.35,524.09 401.35,525.672 389.854,525.672 389.854,535.497 401.051,535.497
		401.051,537.098 389.854,537.098 389.854,547.064 401.631,547.064 401.631,548.646 387.956,548.646 387.956,524.09 	"/>
	<polygon clip-path="url(#SVGID_2_)" points="438.322,524.09 438.322,525.672 429.11,525.672 429.11,548.646 427.194,548.646
		427.194,525.672 417.983,525.672 417.983,524.09 	"/>
</g>
</svg>
